<svg width="180" height="180" viewBox="0 0 320 320" fill="none" xmlns="http://www.w3.org/2000/svg">
  <defs>
    <linearGradient id="f" x1="40" y1="40" x2="280" y2="280" gradientUnits="userSpaceOnUse">
      <stop offset="0" stop-color="#3FBDB0"/>
      <stop offset="0.5" stop-color="#38AAAB"/>
      <stop offset="1" stop-color="#2F7AAF"/>
    </linearGradient>
  </defs>
  <rect width="320" height="320" rx="64" fill="#0c1a26"/>
  <g fill="url(#f)">
    <path d="M160 160 C 150 96, 168 48, 250 56 C 196 70, 178 116, 160 160 Z"/>
    <path d="M160 160 C 150 96, 168 48, 250 56 C 196 70, 178 116, 160 160 Z" transform="rotate(90 160 160)"/>
    <path d="M160 160 C 150 96, 168 48, 250 56 C 196 70, 178 116, 160 160 Z" transform="rotate(180 160 160)"/>
    <path d="M160 160 C 150 96, 168 48, 250 56 C 196 70, 178 116, 160 160 Z" transform="rotate(270 160 160)"/>
  </g>
</svg>
