<svg width="320" height="320" viewBox="0 0 320 320" fill="none" xmlns="http://www.w3.org/2000/svg">
  <defs>
    <linearGradient id="lv" x1="40" y1="40" x2="280" y2="280" gradientUnits="userSpaceOnUse">
      <stop offset="0" stop-color="#3FBDB0"/>
      <stop offset="0.5" stop-color="#38AAAB"/>
      <stop offset="1" stop-color="#2F7AAF"/>
    </linearGradient>
  </defs>
  <g fill="url(#lv)" fill-rule="evenodd">
    <path d="M205.1,53.6C208.0,53.6 216.7,53.5 222.1,54.1C227.5,54.6 232.4,55.5 237.7,57.0C243.0,58.4 248.9,60.6 253.8,62.8C258.6,65.0 262.3,67.1 266.9,70.1C271.5,73.1 277.2,77.3 281.5,80.9C285.8,84.4 289.5,88.1 292.7,91.6C296.0,95.1 298.1,97.4 301.0,101.8C303.9,106.2 307.8,112.8 310.3,117.9C312.7,123.0 314.2,127.7 315.6,132.5C317.0,137.3 317.9,142.6 318.5,146.6C319.2,150.6 319.5,150.7 319.5,156.3C319.5,162.0 319.2,174.0 318.5,180.7C317.9,187.4 316.9,191.7 315.6,196.8C314.3,201.8 312.8,206.3 310.7,210.9C308.7,215.5 306.1,220.3 303.4,224.5C300.8,228.8 298.6,231.9 294.7,236.2C290.8,240.5 284.7,246.5 280.1,250.4C275.4,254.2 270.8,257.2 266.9,259.6C263.0,262.0 256.6,265.5 256.7,265.0C256.8,264.4 263.7,259.8 267.4,256.2C271.1,252.6 275.7,247.8 279.1,243.5C282.5,239.3 285.2,235.4 287.9,230.9C290.5,226.3 293.0,221.6 295.2,216.3C297.3,210.9 299.3,203.8 300.5,198.7C301.7,193.6 302.1,190.7 302.5,185.6C302.8,180.5 302.8,173.2 302.5,168.0C302.1,162.9 302.0,160.6 300.5,154.9C299.1,149.2 296.0,139.6 293.7,133.9C291.4,128.3 289.2,124.6 286.9,120.8C284.6,117.0 283.6,115.0 280.1,111.1C276.6,107.1 269.8,100.3 265.9,96.9C262.0,93.5 259.7,92.4 256.7,90.6C253.7,88.8 251.4,87.6 247.9,86.2C244.4,84.8 238.1,82.9 235.7,82.3C233.4,81.7 232.7,81.9 233.8,82.8C234.9,83.7 239.1,85.4 242.6,87.7C246.0,89.9 250.5,92.9 254.7,96.4C259.0,100.0 265.0,106.1 267.9,109.1C270.8,112.1 270.4,111.9 272.3,114.5C274.1,117.0 277.0,120.8 279.1,124.2C281.2,127.6 283.1,130.9 284.9,134.9C286.8,139.0 289.1,144.7 290.3,148.6C291.5,152.4 293.6,158.1 292.2,157.8C290.9,157.6 286.1,150.5 282.0,147.1C277.9,143.7 272.3,139.9 267.4,137.4C262.5,134.8 258.5,133.1 252.8,131.5C247.0,129.9 238.1,129.0 232.8,127.6C227.5,126.2 225.3,125.3 221.1,123.2C217.0,121.2 212.3,118.7 208.0,115.4C203.7,112.2 200.4,110.0 195.3,103.7C190.2,97.5 181.8,83.8 177.3,77.9C172.7,72.1 170.6,70.9 168.0,68.7C165.5,66.4 161.2,65.8 162.2,64.3C163.2,62.7 169.8,60.8 173.9,59.4C177.9,58.0 182.4,56.9 186.5,56.0C190.7,55.1 195.7,54.4 198.7,54.1C201.7,53.7 203.5,54.1 204.6,54.1C205.6,54.0 202.1,53.6 205.1,53.6Z"/>
    <path d="M62.3,54.6C59.7,57.0 50.0,65.3 45.8,69.6C41.6,74.0 39.5,77.0 37.0,80.4C34.5,83.8 32.6,86.7 30.7,90.1C28.7,93.5 27.1,96.4 25.3,100.8C23.5,105.2 21.3,111.0 20.0,116.4C18.6,121.8 17.5,127.5 17.0,133.5C16.6,139.4 16.4,145.5 17.0,152.0C17.7,158.5 19.5,166.8 20.9,172.4C22.4,178.0 24.1,181.6 25.8,185.6C27.5,189.5 29.4,193.1 31.2,196.3C33.0,199.5 34.7,202.0 36.5,204.6C38.3,207.1 39.5,208.8 41.9,211.4C44.2,214.0 47.2,217.2 50.7,220.2C54.1,223.1 58.9,226.6 62.8,228.9C66.7,231.3 70.5,232.9 74.0,234.3C77.6,235.7 82.4,236.7 84.3,237.2C86.1,237.7 85.1,237.4 85.2,237.2C85.4,237.0 87.3,237.6 85.2,236.2C83.1,234.8 76.5,231.6 72.6,228.9C68.6,226.2 64.9,223.2 61.4,220.2C57.9,217.1 54.3,213.3 51.6,210.4C48.9,207.5 48.2,207.1 45.3,202.6C42.4,198.2 36.8,188.9 34.1,183.6C31.4,178.3 30.4,174.5 29.2,171.0C28.1,167.4 25.5,161.6 27.3,162.2C29.1,162.8 35.6,171.0 39.9,174.4C44.2,177.8 48.3,180.3 53.1,182.6C57.9,185.0 63.1,187.0 68.7,188.5C74.3,190.0 80.9,190.2 86.7,191.9C92.5,193.6 98.3,196.0 103.3,198.7C108.2,201.4 112.9,205.1 116.4,208.0C119.9,210.8 122.2,213.6 124.2,215.8C126.2,218.0 126.0,217.3 128.6,221.1C131.2,224.9 136.0,233.7 139.8,238.7C143.6,243.6 148.6,248.1 151.5,250.8C154.3,253.6 157.2,253.9 156.8,255.2C156.5,256.5 153.2,257.3 149.5,258.6C145.9,259.9 140.9,261.8 134.9,263.0C128.9,264.2 120.4,265.6 113.5,265.9C106.6,266.3 99.8,265.9 93.5,265.0C87.2,264.1 80.3,262.0 75.5,260.6C70.7,259.1 68.2,257.8 64.8,256.2C61.4,254.6 58.4,252.9 55.0,250.8C51.7,248.8 48.3,246.6 44.8,244.0C41.3,241.4 37.2,238.0 34.1,235.3C31.0,232.5 28.9,230.4 26.3,227.5C23.7,224.5 21.4,222.2 18.5,217.7C15.6,213.3 11.4,206.8 8.8,200.7C6.1,194.6 3.9,187.3 2.4,181.2C1.0,175.1 0.4,169.6 0.0,164.1C-0.4,158.7 -0.2,152.9 0.0,148.6C0.2,144.3 0.5,142.0 1.0,138.3C1.5,134.7 1.9,131.0 2.9,126.6C4.0,122.3 5.3,117.1 7.3,112.0C9.3,107.0 11.6,101.9 15.1,96.4C18.6,91.0 23.1,84.7 28.2,79.4C33.4,74.0 40.2,68.4 45.8,64.3C51.4,60.2 59.1,56.7 61.9,55.0C64.6,53.4 65.0,52.1 62.3,54.6Z"/>
    <path d="M256.2,166.1C257.1,168.0 259.8,174.5 261.1,178.3C262.3,182.0 262.8,184.4 263.5,188.5C264.2,192.6 265.1,198.2 265.4,203.1C265.8,208.1 265.6,214.2 265.4,218.2C265.3,222.2 265.0,223.6 264.5,227.0C263.9,230.3 263.2,234.2 262.0,238.2C260.9,242.2 260.2,245.6 257.7,250.8C255.1,256.1 250.8,264.1 246.9,269.8C243.0,275.6 239.4,280.2 234.3,285.4C229.2,290.6 222.5,296.6 216.3,301.0C210.0,305.4 203.1,309.0 196.8,311.7C190.4,314.5 184.3,316.2 178.3,317.6C172.3,318.9 165.4,319.6 160.7,320.0C156.1,320.4 154.9,320.3 150.5,320.0C146.1,319.7 139.2,318.9 134.4,318.1C129.6,317.2 125.5,316.2 121.8,315.1C118.0,314.1 116.3,313.7 112.0,311.7C107.7,309.8 101.1,306.7 96.0,303.4C90.8,300.2 85.2,295.5 81.3,292.2C77.5,289.0 75.8,287.0 73.1,284.0C70.3,280.9 67.3,277.1 64.8,273.7C62.3,270.3 60.0,267.0 58.0,263.5C55.9,260.0 51.9,252.5 52.6,252.8C53.3,253.1 57.9,260.7 62.3,265.4C66.8,270.2 73.5,276.6 79.4,281.0C85.3,285.5 92.0,289.3 97.9,292.2C103.8,295.2 108.9,296.9 114.9,298.6C121.0,300.2 128.4,301.4 134.4,302.0C140.4,302.5 145.0,302.5 151.0,302.0C157.0,301.4 164.7,300.0 170.5,298.6C176.2,297.1 181.3,295.0 185.6,293.2C189.9,291.4 193.1,289.6 196.3,287.9C199.5,286.1 200.9,285.4 204.6,282.5C208.2,279.6 214.3,274.5 218.2,270.3C222.1,266.1 225.6,260.8 227.9,257.2C230.3,253.5 231.0,251.6 232.3,248.4C233.6,245.2 235.2,240.0 235.7,238.2C236.3,236.3 235.9,237.4 235.7,237.2C235.6,237.0 235.9,235.6 234.8,237.2C233.6,238.8 231.8,243.0 228.9,246.9C226.1,250.8 221.0,257.0 217.7,260.6C214.5,264.2 212.5,265.8 209.4,268.4C206.4,271.0 204.1,273.2 199.2,276.2C194.3,279.2 185.2,284.0 180.2,286.4C175.2,288.7 172.6,289.3 169.0,290.3C165.4,291.3 158.5,293.9 158.8,292.2C159.1,290.6 167.5,284.6 171.0,280.5C174.4,276.5 177.4,271.9 179.7,267.9C182.1,263.8 183.5,261.2 185.1,256.2C186.7,251.2 187.8,243.3 189.5,237.7C191.2,232.1 193.0,227.1 195.3,222.6C197.6,218.0 199.9,214.5 203.1,210.4C206.4,206.4 211.3,201.4 214.8,198.2C218.3,195.1 219.7,194.2 224.0,191.4C228.4,188.7 236.9,184.1 240.6,181.7C244.3,179.2 243.9,179.3 246.5,176.8C249.0,174.3 254.1,168.4 255.7,166.6C257.3,164.8 255.3,164.1 256.2,166.1Z"/>
    <path d="M155.4,0.0C158.0,-0.1 164.4,-0.5 170.5,0.0C176.6,0.5 186.0,1.8 191.9,2.9C197.8,4.1 201.1,5.0 206.0,6.8C211.0,8.7 216.9,11.4 221.6,14.1C226.3,16.8 230.1,19.4 234.3,22.9C238.5,26.4 242.9,30.4 246.9,35.1C251.0,39.7 255.3,45.5 258.6,50.7C262.0,55.8 267.2,65.8 266.9,66.2C266.7,66.6 261.2,57.6 257.2,53.1C253.1,48.5 247.5,43.0 242.6,39.0C237.6,34.9 232.1,31.4 227.5,28.7C222.8,26.1 219.0,24.5 214.8,22.9C210.6,21.3 206.8,20.1 202.1,19.0C197.4,17.9 191.7,17.0 186.5,16.6C181.3,16.2 174.9,16.4 171.0,16.6C167.1,16.7 167.8,16.5 163.2,17.5C158.5,18.6 149.1,20.7 143.2,22.9C137.3,25.1 132.4,27.8 127.6,30.7C122.8,33.6 119.3,36.0 114.5,40.4C109.6,44.9 102.4,52.6 98.4,57.5C94.3,62.3 92.3,66.1 90.1,69.6C87.9,73.2 86.0,77.2 85.2,78.9C84.5,80.6 85.5,79.9 85.7,79.9C86.0,79.9 84.7,81.7 86.7,78.9C88.7,76.1 94.0,67.5 97.9,62.8C101.8,58.1 106.9,53.6 110.1,50.7C113.2,47.7 114.1,47.2 116.9,45.3C119.7,43.3 123.2,40.9 126.6,39.0C130.0,37.0 133.8,35.1 137.4,33.6C140.9,32.1 144.1,30.8 148.1,29.7C152.0,28.6 160.7,25.7 161.2,26.8C161.7,27.8 154.5,32.1 151.0,36.0C147.5,40.0 142.8,46.8 140.3,50.7C137.8,54.6 137.2,56.3 135.9,59.4C134.6,62.5 133.8,64.5 132.5,69.2C131.2,73.9 130.0,82.1 128.1,87.7C126.1,93.3 123.1,98.7 120.8,102.8C118.4,106.8 116.6,109.0 114.0,112.0C111.4,115.0 108.5,118.0 105.2,120.8C102.0,123.6 98.8,125.8 94.5,128.6C90.2,131.3 82.8,135.2 79.4,137.4C76.0,139.5 76.8,139.1 74.0,141.7C71.3,144.4 65.3,153.3 62.8,153.4C60.3,153.6 60.2,146.9 58.9,142.7C57.7,138.5 56.3,132.8 55.5,128.1C54.7,123.4 54.3,118.6 54.1,114.5C53.8,110.3 53.9,106.7 54.1,103.3C54.2,99.8 54.4,97.4 55.0,93.5C55.7,89.6 56.7,84.2 58.0,79.9C59.2,75.6 60.6,71.8 62.3,67.7C64.1,63.6 66.2,59.7 68.7,55.5C71.2,51.4 74.7,46.5 77.4,42.9C80.2,39.2 82.2,36.8 85.2,33.6C88.2,30.4 92.1,26.7 95.5,23.9C98.8,21.0 101.2,19.1 105.2,16.6C109.2,14.0 115.0,10.8 119.3,8.8C123.6,6.7 126.6,5.7 131.0,4.4C135.5,3.1 142.1,1.6 146.1,1.0C150.1,0.3 153.3,0.6 154.9,0.5C156.4,0.3 152.8,0.1 155.4,0.0Z"/>
  </g>
</svg>
